<svg width="36" height="36" viewBox="0 0 36 36" fill="none" xmlns="http://www.w3.org/2000/svg">
<path d="M5.625 21.0938V7.03125C5.625 3.92463 8.14338 1.40625 11.25 1.40625H7.03125C3.92463 1.40625 1.40625 3.92463 1.40625 7.03125V21.0938C1.40625 24.2004 3.92463 26.7188 7.03125 26.7188H11.25C8.14338 26.7188 5.625 24.2004 5.625 21.0938Z" fill="#CEE1F2"/>
<path d="M28.9688 8.4375H26.1562C25.3796 8.4375 24.75 9.06708 24.75 9.84375C24.75 10.6204 25.3796 11.25 26.1562 11.25H28.9688C29.7454 11.25 30.375 10.6204 30.375 9.84375C30.375 9.06708 29.7454 8.4375 28.9688 8.4375Z" fill="#F8CE19"/>
<path d="M28.9688 19.6875H26.1562C25.3796 19.6875 24.75 20.3171 24.75 21.0938C24.75 21.8704 25.3796 22.5 26.1562 22.5H28.9688C29.7454 22.5 30.375 21.8704 30.375 21.0938C30.375 20.3171 29.7454 19.6875 28.9688 19.6875Z" fill="#F8CE19"/>
<path d="M28.9688 0H7.03125C3.15415 0 0 3.15422 0 7.03125V21.0938C0 24.9708 3.15415 28.125 7.03125 28.125H28.9688C32.8459 28.125 36 24.9708 36 21.0938V7.03125C36 3.15422 32.8459 0 28.9688 0ZM33.1875 21.0938C33.1875 23.42 31.295 25.3125 28.9688 25.3125H7.03125C4.70503 25.3125 2.8125 23.42 2.8125 21.0938V7.03125C2.8125 4.70503 4.70503 2.8125 7.03125 2.8125H28.9688C31.295 2.8125 33.1875 4.70503 33.1875 7.03125V21.0938Z" fill="#0C80EF"/>
<path d="M18 30.375C17.2233 30.375 16.5938 31.0046 16.5938 31.7812V33.1875H12.375C11.5983 33.1875 10.9688 33.8171 10.9688 34.5938C10.9688 35.3704 11.5983 36 12.375 36H23.625C24.4017 36 25.0312 35.3704 25.0312 34.5938C25.0312 33.8171 24.4017 33.1875 23.625 33.1875H19.4062V31.7812C19.4062 31.0046 18.7767 30.375 18 30.375Z" fill="#0C80EF"/>
<path d="M18 11.25H11.25V9.84375C11.25 7.51753 9.35747 5.625 7.03125 5.625C6.25458 5.625 5.625 6.25458 5.625 7.03125C5.625 7.80792 6.25458 8.4375 7.03125 8.4375C7.80666 8.4375 8.4375 9.06834 8.4375 9.84375V15.4688C8.4375 17.302 9.61327 18.8651 11.25 19.4456V21.0938C11.25 21.8704 11.8796 22.5 12.6562 22.5C13.4329 22.5 14.0625 21.8704 14.0625 21.0938V19.6875H16.5938V21.0938C16.5938 21.8704 17.2233 22.5 18 22.5C18.7767 22.5 19.4062 21.8704 19.4062 21.0938V19.4456C21.043 18.8651 22.2188 17.302 22.2188 15.4688C22.2188 13.1425 20.3262 11.25 18 11.25ZM18 16.875H12.6562C11.8808 16.875 11.25 16.2442 11.25 15.4688V14.0625H18C18.7754 14.0625 19.4062 14.6933 19.4062 15.4688C19.4062 16.2442 18.7754 16.875 18 16.875Z" fill="#0C80EF"/>
<path d="M28.9688 14.0625H26.1562C25.3796 14.0625 24.75 14.6921 24.75 15.4688C24.75 16.2454 25.3796 16.875 26.1562 16.875H28.9688C29.7454 16.875 30.375 16.2454 30.375 15.4688C30.375 14.6921 29.7454 14.0625 28.9688 14.0625Z" fill="#0C80EF"/>
</svg>
